<mxfile host="app.diagrams.net" modified="2022-10-10T18:33:33.823Z" agent="5.0 (Windows)" etag="HLKsAwuOXcseHlL63j6T" version="20.3.0" type="github">
  <diagram id="if5nVswR0JjgbrMELxMA" name="Page-1">
    <mxGraphModel dx="667" dy="948" grid="1" gridSize="10" guides="1" tooltips="1" connect="1" arrows="1" fold="1" page="1" pageScale="1" pageWidth="850" pageHeight="1100" math="0" shadow="0">
      <root>
        <mxCell id="0" />
        <mxCell id="1" parent="0" />
        <mxCell id="CU96NOMJA65ZmRgSplvF-4" style="edgeStyle=orthogonalEdgeStyle;rounded=0;orthogonalLoop=1;jettySize=auto;html=1;exitX=0.5;exitY=1;exitDx=0;exitDy=0;entryX=0.5;entryY=0;entryDx=0;entryDy=0;fontSize=16;strokeColor=default;endArrow=none;endFill=0;" edge="1" parent="1" source="CU96NOMJA65ZmRgSplvF-1" target="CU96NOMJA65ZmRgSplvF-3">
          <mxGeometry relative="1" as="geometry" />
        </mxCell>
        <mxCell id="CU96NOMJA65ZmRgSplvF-5" value="1" style="edgeLabel;html=1;align=center;verticalAlign=middle;resizable=0;points=[];fontSize=16;" vertex="1" connectable="0" parent="CU96NOMJA65ZmRgSplvF-4">
          <mxGeometry x="0.3684" y="1" relative="1" as="geometry">
            <mxPoint x="9" y="6" as="offset" />
          </mxGeometry>
        </mxCell>
        <mxCell id="CU96NOMJA65ZmRgSplvF-14" style="edgeStyle=orthogonalEdgeStyle;orthogonalLoop=1;jettySize=auto;html=1;entryX=0.5;entryY=1;entryDx=0;entryDy=0;strokeColor=default;fontSize=16;endArrow=classic;endFill=1;curved=1;" edge="1" parent="1" source="CU96NOMJA65ZmRgSplvF-1" target="CU96NOMJA65ZmRgSplvF-8">
          <mxGeometry relative="1" as="geometry" />
        </mxCell>
        <mxCell id="CU96NOMJA65ZmRgSplvF-16" style="edgeStyle=orthogonalEdgeStyle;orthogonalLoop=1;jettySize=auto;html=1;strokeColor=default;fontSize=16;endArrow=classic;endFill=1;curved=1;" edge="1" parent="1" source="CU96NOMJA65ZmRgSplvF-1" target="CU96NOMJA65ZmRgSplvF-9">
          <mxGeometry relative="1" as="geometry">
            <Array as="points">
              <mxPoint x="560" y="145" />
            </Array>
          </mxGeometry>
        </mxCell>
        <mxCell id="CU96NOMJA65ZmRgSplvF-19" style="edgeStyle=orthogonalEdgeStyle;orthogonalLoop=1;jettySize=auto;html=1;entryX=0.5;entryY=1;entryDx=0;entryDy=0;strokeColor=default;fontSize=16;endArrow=classic;endFill=1;curved=1;" edge="1" parent="1" source="CU96NOMJA65ZmRgSplvF-1" target="CU96NOMJA65ZmRgSplvF-10">
          <mxGeometry relative="1" as="geometry" />
        </mxCell>
        <mxCell id="CU96NOMJA65ZmRgSplvF-1" value="&lt;font style=&quot;font-size: 16px;&quot;&gt;Deck&lt;/font&gt;" style="html=1;dashed=0;whitespace=wrap;" vertex="1" parent="1">
          <mxGeometry x="400" y="120" width="100" height="50" as="geometry" />
        </mxCell>
        <mxCell id="CU96NOMJA65ZmRgSplvF-22" style="edgeStyle=orthogonalEdgeStyle;orthogonalLoop=1;jettySize=auto;html=1;exitX=0.58;exitY=1.01;exitDx=0;exitDy=0;entryX=0;entryY=0.5;entryDx=0;entryDy=0;strokeColor=default;fontSize=16;endArrow=classic;endFill=1;curved=1;exitPerimeter=0;" edge="1" parent="1" source="CU96NOMJA65ZmRgSplvF-2" target="CU96NOMJA65ZmRgSplvF-12">
          <mxGeometry relative="1" as="geometry">
            <Array as="points">
              <mxPoint x="460" y="410" />
              <mxPoint x="460" y="450" />
            </Array>
          </mxGeometry>
        </mxCell>
        <mxCell id="CU96NOMJA65ZmRgSplvF-23" style="edgeStyle=orthogonalEdgeStyle;orthogonalLoop=1;jettySize=auto;html=1;exitX=0.5;exitY=1;exitDx=0;exitDy=0;entryX=1;entryY=0.5;entryDx=0;entryDy=0;strokeColor=default;fontSize=16;endArrow=classic;endFill=1;curved=1;" edge="1" parent="1" source="CU96NOMJA65ZmRgSplvF-2" target="CU96NOMJA65ZmRgSplvF-20">
          <mxGeometry relative="1" as="geometry">
            <Array as="points">
              <mxPoint x="450" y="450" />
            </Array>
          </mxGeometry>
        </mxCell>
        <mxCell id="CU96NOMJA65ZmRgSplvF-26" style="edgeStyle=orthogonalEdgeStyle;rounded=0;orthogonalLoop=1;jettySize=auto;html=1;entryX=0.976;entryY=0.368;entryDx=0;entryDy=0;entryPerimeter=0;strokeColor=default;fontSize=16;endArrow=classic;endFill=1;" edge="1" parent="1" source="CU96NOMJA65ZmRgSplvF-2" target="CU96NOMJA65ZmRgSplvF-21">
          <mxGeometry relative="1" as="geometry" />
        </mxCell>
        <mxCell id="CU96NOMJA65ZmRgSplvF-27" style="edgeStyle=orthogonalEdgeStyle;rounded=0;orthogonalLoop=1;jettySize=auto;html=1;entryX=0;entryY=0.5;entryDx=0;entryDy=0;strokeColor=default;fontSize=16;endArrow=classic;endFill=1;" edge="1" parent="1" source="CU96NOMJA65ZmRgSplvF-2" target="CU96NOMJA65ZmRgSplvF-11">
          <mxGeometry relative="1" as="geometry" />
        </mxCell>
        <mxCell id="CU96NOMJA65ZmRgSplvF-2" value="&lt;font style=&quot;font-size: 16px;&quot;&gt;Flashcard&lt;/font&gt;" style="html=1;dashed=0;whitespace=wrap;" vertex="1" parent="1">
          <mxGeometry x="400" y="360" width="100" height="50" as="geometry" />
        </mxCell>
        <mxCell id="CU96NOMJA65ZmRgSplvF-6" style="edgeStyle=orthogonalEdgeStyle;rounded=0;orthogonalLoop=1;jettySize=auto;html=1;strokeColor=default;fontSize=16;endArrow=none;endFill=0;shape=link;" edge="1" parent="1" source="CU96NOMJA65ZmRgSplvF-3" target="CU96NOMJA65ZmRgSplvF-2">
          <mxGeometry relative="1" as="geometry" />
        </mxCell>
        <mxCell id="CU96NOMJA65ZmRgSplvF-7" value="N" style="edgeLabel;html=1;align=center;verticalAlign=middle;resizable=0;points=[];fontSize=16;" vertex="1" connectable="0" parent="CU96NOMJA65ZmRgSplvF-6">
          <mxGeometry x="-0.8894" relative="1" as="geometry">
            <mxPoint x="10" y="6" as="offset" />
          </mxGeometry>
        </mxCell>
        <mxCell id="CU96NOMJA65ZmRgSplvF-3" value="has" style="shape=rhombus;perimeter=rhombusPerimeter;whiteSpace=wrap;html=1;align=center;fontSize=16;" vertex="1" parent="1">
          <mxGeometry x="390" y="220" width="120" height="60" as="geometry" />
        </mxCell>
        <mxCell id="CU96NOMJA65ZmRgSplvF-8" value="&lt;u&gt;Id&lt;/u&gt;" style="ellipse;whiteSpace=wrap;html=1;align=center;fontSize=16;" vertex="1" parent="1">
          <mxGeometry x="400" y="40" width="100" height="40" as="geometry" />
        </mxCell>
        <mxCell id="CU96NOMJA65ZmRgSplvF-9" value="Description" style="ellipse;whiteSpace=wrap;html=1;align=center;fontSize=16;" vertex="1" parent="1">
          <mxGeometry x="506" y="81" width="100" height="40" as="geometry" />
        </mxCell>
        <mxCell id="CU96NOMJA65ZmRgSplvF-10" value="Name" style="ellipse;whiteSpace=wrap;html=1;align=center;fontSize=16;" vertex="1" parent="1">
          <mxGeometry x="290" y="80" width="100" height="40" as="geometry" />
        </mxCell>
        <mxCell id="CU96NOMJA65ZmRgSplvF-11" value="Type" style="ellipse;whiteSpace=wrap;html=1;align=center;fontSize=16;" vertex="1" parent="1">
          <mxGeometry x="520" y="365" width="100" height="40" as="geometry" />
        </mxCell>
        <mxCell id="CU96NOMJA65ZmRgSplvF-12" value="&lt;u&gt;Id&lt;/u&gt;" style="ellipse;whiteSpace=wrap;html=1;align=center;fontSize=16;" vertex="1" parent="1">
          <mxGeometry x="480" y="430" width="100" height="40" as="geometry" />
        </mxCell>
        <mxCell id="CU96NOMJA65ZmRgSplvF-20" value="Answer" style="ellipse;whiteSpace=wrap;html=1;align=center;fontSize=16;" vertex="1" parent="1">
          <mxGeometry x="330" y="430" width="100" height="40" as="geometry" />
        </mxCell>
        <mxCell id="CU96NOMJA65ZmRgSplvF-21" value="Question" style="ellipse;whiteSpace=wrap;html=1;align=center;fontSize=16;" vertex="1" parent="1">
          <mxGeometry x="270" y="370" width="100" height="40" as="geometry" />
        </mxCell>
      </root>
    </mxGraphModel>
  </diagram>
</mxfile>
